<svg xmlns:svg="http://www.w3.org/2000/svg" xmlns="http://www.w3.org/2000/svg" version="1.1" preserveAspectRatio="xMidYMid" viewBox="0 0 256 255" height="255" width="256">
  <g transform="matrix(0.98219837,0,0,0.98219837,2.2786087,2.2472299)">
    <path d="m238.31331 144.10975c-2.1012-0.29401-3.98996-1.30385-5.31012-2.96478-1.32016-1.66093-1.95635-3.37604-1.82216-5.49347 0.13418-2.11743 1.06665-3.73457 2.58576-5.21572 1.51912-1.48115 3.56439-2.29817 5.6859-2.27132 2.12151 0.0268 4.14545 0.89536 5.6266 2.41447 1.48115 1.51911 2.20346 3.96701 2.06928 6.08444-0.13418 2.11743-1.24424 4.44632-2.90517 5.76648-1.66093 1.32015-3.82888 1.97392-5.93009 1.6799 0 0 0 0 0 0m-11.14686 34.99559c-1.8765-0.99008-3.34331-2.60251-4.01918-4.61366-0.67588-2.01115-0.76252-3.88925 0.0878-5.83306 0.85035-1.94382 2.19238-3.19201 4.12784-4.06122 1.93546-0.8692 4.06688-0.9039 6.06806-0.19906 2.00118 0.70485 3.63773 2.28392 4.50694 4.21937 0.8692 1.93546 0.80584 4.50963-0.0445 6.45345-0.85035 1.94381-2.60358 3.77931-4.61473 4.45518-2.01115 0.67588-4.23575 0.56908-6.11225-0.421 0 0 0 0 0 0m-21.94242 29.45792c-1.48227-1.51803-2.34841-3.4702-2.37371-5.59173-0.0253-2.12153 0.54461-3.87737 1.9528-5.46436 1.40819-1.58699 3.14662-2.30803 5.25608-2.53543 2.10946-0.2274 4.18328 0.42592 5.86704 1.71684 1.68376 1.29092 2.71671 3.27001 2.94411 5.37947 0.2274 2.10946-0.69155 4.47131-2.09974 6.0583-1.40819 1.58699-3.70415 2.72376-5.82568 2.74905-2.12153 0.0253-4.23864-0.7941-5.7209-2.31214 0 0 0 0 0 0m-30.29096 20.77464c-0.8976-1.92246-1.0794-4.06507-0.40353-6.07622 0.67588-2.01115 1.77211-3.50598 3.62407-4.54126 1.85195-1.03527 3.71181-1.16863 5.77889-0.69042 2.06709 0.47821 3.80291 1.76429 4.96941 3.53651 1.16651 1.77223 1.49966 3.99346 1.02145 6.06054-0.47821 2.06709-2.11077 4.02369-3.96273 5.05897-1.85195 1.03527-4.38527 1.38296-6.39642 0.70709-2.01115-0.67587-3.73354-2.13276-4.63114-4.05521 0 0 0 0 0 0m-35.4026 9.77795c-0.24097-2.10795 0.36532-4.22528 1.68548-5.88621 1.32016-1.66093 2.83477-2.76757 4.92791-3.11436 2.09314-0.34679 3.86237 0.093 5.64741 1.23978 1.78505 1.14679 2.97714 2.91302 3.48012 4.97422 0.50299 2.0612 0.0732 4.29523-1.07359 6.08028-1.14679 1.78504-3.34564 3.14334-5.43878 3.49013-2.09315 0.34679-4.59726-0.10968-6.25819-1.42984-1.66093-1.32016-2.7294-3.24605-2.97036-5.354 0 0 0 0 0 0m-36.66296-2.24795c0.492-2.06385 1.68624-3.87806 3.46574-5.03343 1.77951-1.15537 3.57164-1.68972 5.66606-1.35068 2.09441 0.33903 3.63415 1.34774 4.95851 3.00532 1.32436 1.65759 1.88833 3.72416 1.70476 5.83789-0.18356 2.11372-1.30359 4.08119-2.96117 5.40556-1.65758 1.32436-4.16434 1.88427-6.25875 1.54523-2.09442-0.33903-4.30734-1.59785-5.46271-3.37736-1.15537-1.77951-1.60445-3.96869-1.11244-6.03253 0 0 0 0 0 0M68.920084 222.84357c1.11146-1.80726 2.79354-3.12682 4.84473-3.66915 2.0512-0.54233 3.88708-0.42631 5.77089 0.5498 1.8838 0.97611 3.00281 2.48077 3.74252 4.46932 0.73971 1.98856 0.61562 4.1601-0.22015 6.11023-0.83576 1.95013-2.50007 3.437-4.48863 4.17671-1.98855 0.73971-4.51077 0.42567-6.39458-0.55044-1.88381-0.9761-3.55692-2.92554-4.09925-4.97673-0.54233-2.0512-0.26699-4.30248 0.84447-6.10974 0 0 0 0 0 0m-27.55467-24.28681c1.65758-1.32436 3.71704-2.02235 5.83076-1.83878 2.11373 0.18356 3.85692 0.85916 5.30036 2.41415 1.44344 1.55499 2.0376 3.29335 2.06392 5.41487 0.0263 2.12151-0.79865 4.0981-2.24209 5.6531-1.44344 1.55499-3.53637 2.41897-5.65789 2.44528-2.12151 0.0263-4.44671-1.07327-5.89015-2.62826-1.44344-1.555-2.41964-3.90775-2.23608-6.02147 0.18357-2.11373 1.17358-4.11453 2.83117-5.43889 0 0 0 0 0 0m-18.16777-31.92232c1.98856-0.73971 4.1311-0.74527 6.08123 0.0905 1.95014 0.83577 3.3346 2.05438 4.21767 3.98355 0.88307 1.92918 0.84712 3.79937 0.20528 5.82163-0.64184 2.02227-2.07253 3.65432-3.93195 4.67612-1.85942 1.02181-4.09082 1.17062-6.11308 0.52878-2.02227-0.64184-3.82511-2.43813-4.70818-4.36731-0.88306-1.92917-1.00975-4.49092-0.17398-6.44105 0.83576-1.95013 2.43446-3.55251 4.42301-4.29222 0 0 0 0 0 0m-6.82158-36.09095c2.12151-0.0263 4.17523 0.68796 5.73022 2.1314 1.55499 1.44344 2.51489 3.04749 2.69846 5.16121 0.18356 2.11372-0.41534 3.85258-1.69849 5.54226-1.28316 1.68968-3.14782 2.74215-5.24224 3.08118-2.09441 0.33903-4.27719-0.26523-5.96687-1.54839-1.68968-1.28316-2.8484407-3.57706-3.0320007-5.69079-0.18357-2.11372 0.4921-4.56987 1.9355407-6.12486 1.44344-1.55499 3.45386-2.5257 5.57538-2.55201 0 0 0 0 0 0m5.27683-36.348919c2.02227 0.64184 3.71854 1.95825 4.74034 3.81767 1.02181 1.859419 1.37176 3.673619 0.87976 5.737469-0.492 2.06384-1.66266 3.51582-3.41331 4.71446-1.75066 1.19864-3.87865 1.60461-5.97306 1.26558-2.09442-0.33903-3.94862-1.5963-5.14726-3.34695-1.19864-1.75065-1.52185-4.27944-1.02984-6.34328 0.492-2.063839 1.96063-4.163679 3.82004-5.185489 1.85942-1.02181 4.10107-1.30131 6.12333-0.65946 0 0 0 0 0 0m16.78893-32.66849c1.68968 1.28316 2.87114 3.11022 3.21017 5.20464 0.33903 2.09441 0.1114 3.95432-1.04397 5.73383-1.15538 1.77951-2.69362 2.78713-4.74482 3.32946-2.05119 0.54233-4.16579 0.22652-6.02521-0.79529-1.85942-1.02181-3.21135-2.84272-3.75367-4.89391-0.54233-2.0512-0.051-4.57341 1.10442-6.35292 1.15537-1.7795 3.19351-3.30082 5.28792-3.63985 2.09442-0.33904 4.27548 0.13088 5.96516 1.41404 0 0 0 0 0 0m26.49544-25.43802c1.19864 1.75065 1.72784 3.83521 1.38881 5.92962-0.33903 2.09442-1.17355 3.74388-2.83114 5.06824-1.65758 1.32437-3.46816 1.7515-5.58577 1.6202-2.11761-0.13131-4.04369-1.11853-5.48713-2.67352-1.44344-1.55499-2.13355-3.68843-2.00224-5.80604 0.13131-2.11761 1.43053-4.31613 3.08812-5.64049 1.65758-1.32436 4.10507-2.08275 6.19948-1.74372 2.09442 0.33904 4.03123 1.49505 5.22987 3.24571 0 0 0 0 0 0m33.31667-15.46336c0.54233 2.0512 0.34975 4.22209-0.67206 6.0815-1.02181 1.85942-2.3453 3.19354-4.3513 3.88453-2.00601 0.69099-3.8365 0.54684-5.78663-0.28892-1.95013-0.83577-3.42007-2.38224-4.25584-4.33237-0.83576-1.95013-0.78165-4.22175 0.0541-6.17188 0.83577-1.95013 2.77157-3.64313 4.77757-4.33413 2.006-0.69099 4.54445-0.64271 6.40387 0.3791 1.85942 1.02181 3.28795 2.73097 3.83027 4.78217 0 0 0 0 0 0m36.533956-3.79208c-0.1313 2.11761-0.99511 4.08866-2.5501 5.5321-1.55499 1.44344-3.22416 2.23327-5.34567 2.25958-2.12151 0.0263-3.81121-0.7493-5.40144-2.15383-1.59022-1.40453-2.50362-3.36705-2.68718-5.48077-0.18357-2.11373 0.58248-4.22074 1.98701-5.81096 1.40453-1.5902295 3.78168-2.5264797 5.90319-2.5527997 2.12152-0.0263 4.52126 0.8781902 5.9647 2.4331797 1.44344 1.55499 2.2608 3.65589 2.12949 5.7735 0 0 0 0 0 0m35.78853 8.26516c-0.78798 1.96993-2.32623 3.54616-4.27636 4.38192-1.95014 0.83577-3.81827 1.0811-5.82427 0.39011-2.006-0.69099-3.18425-1.90931-4.25119-3.74321-1.06694-1.8339-1.36166-4.01652-0.81933-6.06771 0.54233-2.0512 1.87728-3.80295 3.71118-4.86988 1.83389-1.06693 4.56411-1.13749 6.57012-0.44649 2.006 0.69099 3.97944 2.2828 4.8152 4.23294 0.83577 1.95013 0.86262 4.1524 0.0747 6.12232 0 0 0 0 0 0m31.15542 19.4543c-1.40453 1.59023-3.29695 2.61449-5.41068 2.79806-2.11372 0.18356-3.91828-0.21981-5.60796-1.50297-1.68968-1.28316-2.54976-2.93297-2.9401-5.01844-0.39033-2.08546 0.0946-4.19309 1.24999-5.97259 1.15537-1.77951 3.05605-2.97208 5.14151-3.36241 2.08547-0.39034 4.53523 0.32838 6.22491 1.61154 1.68968 1.28316 3.02576 3.46922 3.20932 5.58294 0.18357 2.11372-0.46246 4.27364-1.86699 5.86387 0 0 0 0 0 0m23.15877 28.50928c-1.83389 1.06693-4.01652 1.36165-6.06771 0.81933-2.0512-0.54233-3.53022-1.35854-4.72886-3.1092-1.19863-1.75065-1.45069-3.61905-1.16323-5.72117 0.28745-2.10211 1.39819-4.00394 3.08787-5.2871 1.68969-1.28316 3.81989-1.84254 5.92201-1.55508 2.10212 0.28745 4.15641 1.77376 5.35504 3.52441 1.19864 1.75065 1.84838 4.40774 1.30605 6.45894-0.54232 2.05119-1.87727 3.80294-3.71117 4.86987 0 0 0 0 0 0m12.63294 34.489439c-2.08546 0.39033-4.21027 0.0341-5.98978-1.1213-1.7795-1.15537-2.96085-2.58453-3.50318-4.63573-0.54232-2.05118-0.21284-3.880699 0.76327-5.764509 0.97611-1.88381 2.65155-3.24518 4.65755-3.93618 2.00601-0.69099 4.24197-0.46242 6.12578 0.51369 1.88381 0.97611 3.37916 3.04613 3.92149 5.09733 0.54233 2.051189 0.25643 4.592589-0.89894 6.372089-1.15538 1.77951-2.99073 3.08427-5.07619 3.47461 0 0 0 0 0 0m0.76681 36.723c-2.10121-0.29402-3.98583-1.30333-5.30598-2.96426-1.32016-1.66093-1.94801-3.3753-1.81383-5.49273 0.13418-2.11742 1.07503-3.73425 2.59415-5.2154 1.51911-1.48114 3.56439-2.29816 5.68589-2.27132 2.12151 0.0269 4.14546 0.89536 5.62661 2.41447 1.48115 1.51912 2.19508 3.96669 2.06089 6.08412-0.13418 2.11743-1.25258 4.44558-2.91351 5.76574-1.66092 1.32016-3.83302 1.9734-5.93422 1.67938 0 0 0 0 0 0" style="fill-opacity:1;fill:#02e2f7"/>
    <path d="m36.912563 174.06066a10.65 10.65 0 0 1-10.65 10.65 10.65 10.65 0 0 1-10.65-10.65 10.65 10.65 0 0 1 10.65-10.65 10.65 10.65 0 0 1 10.65 10.65zM192.9 225.875a10.65 10.65 0 0 1-10.65 10.65 10.65 10.65 0 0 1-10.65-10.65 10.65 10.65 0 0 1 10.65-10.65 10.65 10.65 0 0 1 10.65 10.65zM241.37392 172.01851a10.65 10.65 0 0 1-10.65 10.65 10.65 10.65 0 0 1-10.65-10.65 10.65 10.65 0 0 1 10.65-10.65 10.65 10.65 0 0 1 10.65 10.65zM246.525 99.875a10.65 10.65 0 0 1-10.65 10.65 10.65 10.65 0 0 1-10.65-10.65 10.65 10.65 0 0 1 10.65-10.65 10.65 10.65 0 0 1 10.65 10.65zM137.4 16.75A10.65 10.65 0 0 1 126.75 27.4 10.65 10.65 0 0 1 116.1 16.75 10.65 10.65 0 0 1 126.75 6.1 10.65 10.65 0 0 1 137.4 16.75Z" style="fill-opacity:1;fill:#694a9c"/>
  </g>
  <path d="m126.77902 80.182835-15.35355 9.77297 0 30.000005-30.076266 20.12652 0 15.10051 15.050253 0 30.076273-20.35355 14.99999 10.17678 15.17678-0.00001-0.00001-14.6967-15.05024-10.46967-0.17678-29.883885z" style="fill-opacity:1;fill-rule:evenodd;fill:#694a9c"/>
</svg>
