<svg xmlns="http://www.w3.org/2000/svg" width="256" height="255" viewBox="0 0 256 255" preserveAspectRatio="xMidYMid"><path d="M127.2 254.3C93.2 254.3 61.3 241.1 37.2 217.1 13.2 193.1 0 161.1 0 127.2 0 93.2 13.2 61.3 37.2 37.2 61.3 13.2 93.2 0 127.2 0 155.6 0 182 8.5 204.4 25.9 208 28.6 208.6 33.8 205.9 37.3 203.1 40.9 198 41.5 194.4 38.8 174.9 23.6 152 16.3 127.2 16.3 97.6 16.3 69.7 27.8 48.8 48.8 27.8 69.7 16.3 97.6 16.3 127.2 16.3 156.8 27.8 184.6 48.8 205.5 69.7 226.5 97.6 238 127.2 238 151.8 238 175.2 230.1 194.7 215.1 198.2 212.3 203.4 213 206.1 216.6 208.9 220.1 208.2 225.3 204.6 228 182.2 245.2 155.5 254.3 127.2 254.3ZM153.5 126.8C153.5 141.5 141.5 153.5 126.8 153.5 112 153.5 100.1 141.5 100.1 126.8 100.1 112 112 100.1 126.8 100.1 141.5 100.1 153.5 112 153.5 126.8ZM188.4 126.7C188.4 132.4 183.8 136.9 178.2 136.9 172.6 136.9 168.1 132.4 168.1 126.7 168.1 121.1 172.6 116.6 178.2 116.6 183.8 116.6 188.4 121.1 188.4 126.7ZM221.5 107.5C221.5 113.1 217 117.6 211.4 117.6 205.7 117.6 201.2 113.1 201.2 107.5 201.2 101.9 205.7 97.3 211.4 97.3 217 97.3 221.5 101.9 221.5 107.5ZM221.5 147.8C221.5 153.5 217 158 211.4 158 205.7 158 201.2 153.5 201.2 147.8 201.2 142.2 205.7 137.7 211.4 137.7 217 137.7 221.5 142.2 221.5 147.8ZM256 107.5C256 113.1 251.4 117.6 245.8 117.6 240.2 117.6 235.7 113.1 235.7 107.5 235.7 101.9 240.2 97.3 245.8 97.3 251.4 97.3 256 101.9 256 107.5ZM239.2 68.7C239.2 74.3 234.6 78.8 229 78.8 223.4 78.8 218.8 74.3 218.8 68.7 218.8 63.1 223.4 58.5 229 58.5 234.6 58.5 239.2 63.1 239.2 68.7ZM239.2 185.6C239.2 191.2 234.6 195.7 229 195.7 223.4 195.7 218.8 191.2 218.8 185.6 218.8 179.9 223.4 175.4 229 175.4 234.6 175.4 239.2 179.9 239.2 185.6ZM256 147.8C256 153.5 251.4 158 245.8 158 240.2 158 235.7 153.5 235.7 147.8 235.7 142.2 240.2 137.7 245.8 137.7 251.4 137.7 256 142.2 256 147.8Z" fill="#694A9C"/></svg>