<svg xmlns="http://www.w3.org/2000/svg" width="200" height="200" viewBox="0 0 199.7 199.7"><style>.a{fill:#0004FE;}.b{fill:#02E2F7;}.c{fill:#02FD8D;}.d{fill:#0163FE;}</style><path d="M65.9 95.5c0 0 0 0.1 0 0.1 2.1-16.9 16.5-29.9 34-29.9 4.3 0 9.1 1.1 12.9 2.5 4.9-13.2 12.1-31.9 16.3-43.1 2.3-6.1 4.4-12.2 6.6-18.4C124.6 2.4 112.5 0 99.9 0 49.1 0 7.2 37.9 0.9 87c0.6 0.3 1.5 0.5 2.5 0.6" class="a"/><path d="M137.4 7.3c0 0 0 0 0 0 -0.3-0.1-0.7-0.3-1-0.4C136.7 7 137.1 7.2 137.4 7.3z" class="a"/><path d="M151.2 18.9c-7.1 9.5-14.1 19-20.8 28.6 -5.1 7.3-10.9 14-15.6 21.5 7.3 3.5 13.1 9.5 16.4 17 16.9-8.1 33.6-16.9 50.4-25.3 2.7-1.4 5.8-2.4 8.3-4.1 -8.1-16.8-20.7-31-36.4-41C152.5 16.5 151.9 17.8 151.2 18.9z" class="b"/><path d="M189.9 56.6c-2.6 1.7-5.6 2.7-8.3 4.1 -16.8 8.4-33.4 17.1-50.4 25.3 0 0 0 0 0 0 0.9 2 1.6 4 2.1 6.1 4.8-1.3 9.6-2.7 11.2-3.1 17.5-4.3 34.9-8.6 52.4-13C195.2 69.2 192.9 62.8 189.9 56.6z" class="c"/><path d="M131 85.6c-0.2-0.5-0.5-1-0.7-1.4C130.6 84.7 130.8 85.2 131 85.6z" class="c"/><path d="M127.4 195.9c0 0 0 0 0 0 0.3-0.1 0.5-0.2 0.8-0.3C128 195.7 127.7 195.8 127.4 195.9z" class="b"/><path d="M196.8 76c-17.5 4.3-34.9 8.6-52.4 13 -1.7 0.4-6.5 1.8-11.2 3.1l0.9 7.8c0 15.1-9.8 28-23.5 32.5 0 0 0 0.1-0.1 0.2 0.2 0.1 0.4 0.3 0.6 0.5 2.5 9.4 5 18.8 7.7 28.2 3.3 11.4 6.7 22.8 10.1 34.3 41-12.4 70.9-50.5 70.9-95.6C199.7 91.6 198.7 83.6 196.8 76z" class="b"/><path d="M41.8 181.1c0 0 0 0 0 0 0.2 0.1 0.4 0.2 0.5 0.4C42.2 181.4 42 181.3 41.8 181.1z" class="c"/><path d="M111.2 133c-0.2-0.2-0.5-0.4-0.7-0.6 -3.3 1.1-6.9 1.7-10.6 1.7 -7 0-13.5-2.1-18.9-5.7 0.1 0 0.1 0.1 0.2 0.1 -9.6 13.4-19.2 26.8-28.8 40.2 -3.1 4.4-6.4 8.7-9.6 13 16.2 11.3 35.9 18 57.1 18 10.1 0 19.8-1.5 29-4.3" class="c"/><path d="M73.9 122.1c0.1 0.1 0.1 0.2 0.2 0.3 -0.6 1-1.5 1.7-2.4 2.4 -15.8 12.4-31.4 25.1-47.3 37.5 -0.5 0.4-1 0.8-1.6 1.1 5.8 7 12.5 13.2 19.9 18.4 3.2-4.3 6.5-8.6 9.6-13 9.6-13.4 19.2-26.8 28.8-40.2C78.4 126.8 76 124.6 73.9 122.1z" class="a"/><path d="M22.2 162.6c0 0 0 0 0 0 0.1 0.1 0.1 0.2 0.2 0.3C22.3 162.7 22.2 162.7 22.2 162.6z" class="a"/><path d="M3.4 87.6c-1.1-0.1-1.9-0.3-2.5-0.6C0.3 91.2 0 95.5 0 99.9c0 24.1 8.6 46.2 22.8 63.5 0.6-0.3 1.1-0.7 1.6-1.1 15.8-12.4 31.5-25 47.3-37.5 0.9-0.7 1.9-1.4 2.4-2.4 -5.3-6-8.4-13.9-8.4-22.5 0-1.5 0.1-3 0.3-4.4" class="d"/><path d="M114.8 69c4.7-7.5 10.5-14.3 15.6-21.5 6.7-9.7 13.7-19.2 20.8-28.6 0.8-1 1.4-2.4 2.4-3.2 -5.6-3.6-11.6-6.6-17.9-9 -2.2 6.1-4.4 12.3-6.6 18.4 -4.2 11.2-11.4 30-16.3 43.1" class="d"/></svg>