<svg xmlns="http://www.w3.org/2000/svg" width="256" height="291" viewBox="0 0 256 291" preserveAspectRatio="xMidYMid"><style>.a{fill:#FFF;}.b{fill:#00AEDE;}</style><path d="M190.2 177.2L190.2 113.8 135.5 145.5 190.2 177.2" class="a"/><path d="M186.6 107.6L131.9 76 131.9 139.3 186.6 107.6" class="b"/><path d="M124.8 139.3L124.8 76 70 107.6 124.8 139.3" class="b"/><path d="M121.3 69.9L66.5 38.1 66.5 101.5 121.3 69.9" class="b"/><path d="M186.6 183.3L131.9 151.6 131.9 215 186.6 183.3" class="a"/><path d="M124.8 215L124.8 151.6 70 183.3 124.8 215" class="a"/><path d="M252.1 145.5L197.3 113.8 197.3 177.2 252.1 145.5" class="b"/><path d="M59.4 101.5L59.4 38.1 4.3 69.9 59.4 101.5" class="b"/><path d="M121.3 221.1L66.5 189.4 66.5 252.8 121.3 221.1" class="a"/><path d="M59.4 252.8L59.4 189.4 4.3 221.1 59.4 252.8" class="b"/><path d="M121.3 145.5L66.5 113.8 66.5 177.2 121.3 145.5" class="a"/><path d="M190.2 101.5L190.2 38.1 135.5 69.9 190.2 101.5" class="b"/><path d="M131.9 0.3L131.9 63.7 186.6 32 131.9 0.3" class="a"/><path d="M70 32L124.8 63.7 124.8 0.3 70 32" class="a"/><path d="M186.6 258.9L131.9 227.3 131.9 290.6 186.6 258.9" class="a"/><path d="M124.8 290.6L124.8 227.3 70 258.9 124.8 290.6" class="a"/><path d="M255.7 215L255.7 151.6 201 183.3 255.7 215" class="b"/><path d="M59.4 177.2L59.4 113.7 4.3 145.5 59.4 177.2" class="b"/><path d="M55.9 183.3L0.7 151.6 0.7 215 55.9 183.3" class="b"/><path d="M255.7 139.3L255.7 76 201 107.6 255.7 139.3" class="b"/><path d="M252.1 69.9L197.3 38.1 197.3 101.5 252.1 69.9" class="b"/><path d="M252.1 221.1L197.3 189.4 197.3 252.8 252.1 221.1" class="b"/><path d="M190.2 252.8L190.2 189.4 135.5 221.1 190.2 252.8" class="a"/><path d="M55.9 107.6L0.7 76 0.7 139.3 55.9 107.6" class="b"/></svg>