<svg xmlns="http://www.w3.org/2000/svg" xmlns:xlink="http://www.w3.org/1999/xlink" version="1.1" x="0" y="0" width="178.69" height="147.29" viewBox="0 0 178.69 147.29" enable-background="new 0 0 178.688 147.293" xml:space="preserve">
  <path fill="#BCBCBC" d="M132.43 115.05H42.2C19.76 115.05 1.5 96.79 1.5 74.35c0-17.9 11.69-33.63 28.63-38.88C38.67 15.08 58.95 1.5 81.15 1.5c9.31 0 18.47 2.35 26.58 6.81C110.91 7.44 114.18 7 117.48 7c14.96 0 28.5 9.13 34.17 22.87 15.56 7.41 25.54 23.11 25.54 40.42C177.19 94.97 157.11 115.05 132.43 115.05zM81.15 8.5c-19.91 0-38.05 12.5-45.13 31.11 -0.4 1.06-1.29 1.85-2.38 2.14C18.84 45.63 8.5 59.03 8.5 74.35c0 18.58 15.12 33.7 33.7 33.7h90.23c20.82 0 37.76-16.94 37.76-37.76 0-15.02-8.9-28.61-22.68-34.62 -0.88-0.38-1.56-1.11-1.89-2.01C141.32 21.9 130.01 14 117.48 14c-3.1 0-6.17 0.48-9.11 1.42 -0.95 0.3-1.98 0.19-2.83-0.31C98.17 10.78 89.73 8.5 81.15 8.5z"/>
  <path fill="#BCBCBC" d="M114.17 47.13H98.63v28.25c0 3.36 2.72 6.08 6.08 6.08h6.62c4.37-5.18 7.01-11.86 7.01-19.17C118.33 56.75 116.81 51.57 114.17 47.13z"/>
  <path fill="#BCBCBC" d="M90.33 75.53V47.13h-5.47v-6.78h5.47v-7.74c-0.57-0.03-1.15-0.05-1.73-0.05 -16.42 0-29.74 13.31-29.74 29.74s13.31 29.74 29.74 29.74c5.21 0 10.11-1.34 14.37-3.7C96.08 88.09 90.33 82.46 90.33 75.53z"/>
  <path fill="#BCBCBC" d="M98.63 34.29v6.05h10.03C105.78 37.71 102.38 35.63 98.63 34.29z"/>
  <path fill="#BCBCBC" d="M46.52 135.29l-1.81 10.92c-0.07 0.39-0.43 0.77-0.82 0.77h-4.94c-0.36 0-0.56-0.31-0.56-0.63 0-0.07 0-0.1 0-0.14l1.85-11.17c0.1-0.59 0.23-1.19 0.23-1.79 0-1.08-0.43-1.36-1.55-1.36 -0.99 0-2.21 0.42-2.8 0.77l-2.24 13.55c-0.07 0.42-0.4 0.77-0.89 0.77h-4.71c-0.4 0-0.76-0.21-0.76-0.63 0-0.04 0-0.1 0-0.14l3.17-18.9c0.07-0.38 0.4-0.7 0.76-0.7h4.52c0.33 0 0.56 0.25 0.56 0.6 0 0.04 0 0.07 0 0.11l-0.16 0.91c2.31-1.61 4.12-1.92 5.28-1.92 3.79 0 5.18 2.7 5.18 6.2C46.78 133.4 46.68 134.31 46.52 135.29zM57.99 127.34l-3.13 18.87c-0.07 0.39-0.49 0.77-0.86 0.77h-4.91c-0.33 0-0.59-0.31-0.59-0.66 0-0.04 0-0.07 0-0.1l3.13-18.87c0.07-0.38 0.49-0.73 0.86-0.73h4.91c0.33 0 0.59 0.28 0.59 0.63C57.99 127.27 57.99 127.31 57.99 127.34zM59.27 120.55l-0.56 3.43c-0.07 0.39-0.49 0.7-0.86 0.7h-5.21c-0.33 0-0.63-0.24-0.63-0.59 0-0.04 0-0.07 0-0.1l0.56-3.43c0.07-0.38 0.53-0.7 0.89-0.7h5.21c0.33 0 0.59 0.25 0.59 0.6C59.27 120.48 59.27 120.52 59.27 120.55zM86.57 135.18l-1.81 11.03c-0.07 0.39-0.43 0.77-0.82 0.77h-4.94c-0.36 0-0.56-0.31-0.56-0.63 0-0.07 0-0.1 0-0.14l1.98-11.94c0.07-0.38 0.1-0.7 0.1-1.01 0-0.73-0.26-1.19-1.38-1.19 -0.49 0-1.28 0.11-2.08 0.39 -0.03 0.63-0.1 1.16-0.2 1.82l-1.98 11.94c-0.07 0.39-0.4 0.77-0.79 0.77h-4.98c-0.36 0-0.56-0.31-0.56-0.63 0-0.07 0-0.1 0-0.14l1.98-11.94c0.07-0.35 0.13-0.73 0.13-1.05 0-0.66-0.23-1.15-1.19-1.15 -0.63 0-1.48 0.28-2.21 0.63l-2.24 13.51c-0.07 0.39-0.4 0.77-0.79 0.77h-4.98c-0.36 0-0.59-0.31-0.59-0.66 0-0.04 0-0.07 0-0.1l3.17-18.9c0.07-0.38 0.4-0.7 0.76-0.7h4.45c0.36 0 0.56 0.25 0.56 0.6 0 0.04 0 0.07 0 0.11l-0.1 0.95c1.48-1.64 3.13-1.96 4.88-1.96 1.58 0 2.97 0.77 3.76 1.86 1.91-1.43 3.1-1.85 4.88-1.85 3.86 0 5.93 2.7 5.93 5.74C86.93 133.08 86.73 134.17 86.57 135.18zM107.4 135.43l-0.46 2.73c-1.06 6.16-4.09 9.14-10.19 9.14 -2.97 0-5.57-0.49-7.22-0.87 -0.59-0.14-1.05-0.28-1.05-0.87 0-0.07 0.03-0.17 0.03-0.24l4.12-24.68c0.07-0.38 0.43-0.7 0.79-0.7h4.95c0.33 0 0.59 0.25 0.59 0.6 0 0.04 0 0.07 0 0.11l-0.99 5.92c0.92-0.14 1.45-0.24 2.41-0.24 4.88 0 7.19 3.22 7.19 7.21C107.57 134.1 107.5 134.8 107.4 135.43zM99.32 131.86c-0.79 0-1.62 0.07-2.27 0.14l-1.58 9.59c0.63 0.07 1.22 0.18 2.21 0.18 1.85 0 2.54-1.33 2.93-3.6l0.46-2.73c0.1-0.59 0.17-1.08 0.17-1.54C101.24 132.56 100.71 131.86 99.32 131.86zM129.02 127.38l-3.16 18.9c-0.06 0.39-0.4 0.7-0.76 0.7h-4.52c-0.33 0-0.56-0.24-0.56-0.59 0-0.04 0-0.07 0-0.1l0.17-0.91c-2.31 1.61-4.12 1.93-5.27 1.93 -3.79 0-5.18-2.69-5.18-6.2 0-0.91 0.1-1.82 0.26-2.8l1.81-10.92c0.07-0.38 0.43-0.77 0.82-0.77h4.95c0.36 0 0.56 0.32 0.56 0.63 0 0.07 0 0.11 0 0.14l-1.85 11.17c-0.13 0.7-0.23 1.3-0.23 1.75 0 1.23 0.5 1.4 1.55 1.4 0.99 0 2.21-0.42 2.8-0.77l2.24-13.55c0.07-0.42 0.4-0.77 0.89-0.77h4.72c0.4 0 0.76 0.21 0.76 0.63C129.02 127.27 129.02 127.34 129.02 127.38zM146 127.94l-0.63 3.71c-0.06 0.39-0.3 0.7-0.66 0.7 -0.03 0-0.06 0-0.1 0 -0.96-0.14-4.09-0.56-5.57-0.56 -0.53 0-1.35 0.07-1.35 0.84 0 0.25 0.2 0.49 0.59 0.74l3.46 2.21c2.01 1.26 2.67 2.91 2.67 4.48 0 5.46-4.02 7.25-8.6 7.25 -2.34 0-4.71-0.38-6.13-0.84 -0.33-0.1-0.49-0.31-0.49-0.63 0-0.04 0-0.07 0-0.14l0.59-3.6c0.07-0.45 0.36-0.73 0.79-0.73 0.03 0 0.1 0 0.13 0 1.91 0.28 4.52 0.56 5.6 0.56 0.79 0 1.71-0.14 1.71-1.19 0-0.31-0.16-0.59-0.79-0.98l-3.66-2.31c-1.45-0.91-2.31-2.76-2.31-4.58 0-5.21 3.99-6.54 8.21-6.54 2.54 0 4.52 0.42 6 0.88 0.33 0.11 0.53 0.32 0.53 0.63C146 127.83 146 127.9 146 127.94z"/>
</svg>
